<svg width="120" height="40" fill="none" xmlns="http://www.w3.org/2000/svg"><rect width="120" height="40" rx="8" fill="#e0e0e0"/><path fill-rule="evenodd" clip-rule="evenodd" d="M48.102 11.411c0 .769-.263 1.43-.783 1.962-.52.534-1.177.804-1.948.803-.772 0-1.429-.269-1.948-.803-.521-.533-.783-1.193-.782-1.962-.001-.769.26-1.43.782-1.962.52-.535 1.176-.804 1.948-.803.768-.001 1.422.27 1.945.807.523.535.786 1.194.786 1.958Zm-4.068 1.412c-.364-.369-.546-.833-.547-1.412.001-.58.183-1.043.547-1.412.367-.37.805-.55 1.337-.552.53.001.97.182 1.337.552.364.369.546.833.547 1.412-.001.58-.183 1.043-.547 1.412-.367.37-.806.55-1.337.552a1.805 1.805 0 0 1-1.337-.552ZM37.402 13.26c.394-.353.601-.954.602-1.822V8.76h3.606v4.5h.575v1.89h-.804v-1.089h-3.732v1.089h-.803v-1.89h.556Zm1.433-1.879.001.071c0 .723-.139 1.327-.42 1.808h2.361V9.561h-1.942v1.82Z" fill="#404040"/><path d="M52.536 13.92a2.79 2.79 0 0 1-1.193.256c-.776 0-1.438-.265-1.965-.791-.53-.526-.795-1.191-.794-1.974-.001-.783.264-1.448.794-1.973.527-.527 1.189-.793 1.965-.792.796-.001 1.457.29 1.955.868l.053.06-.058.057-.528.51-.06-.074c-.334-.414-.78-.618-1.362-.62-.542.001-.988.18-1.36.542-.368.362-.552.828-.552 1.422s.184 1.061.552 1.422c.371.362.818.54 1.36.542.595-.001 1.093-.235 1.517-.716l.06-.069.58.579-.05.06a2.582 2.582 0 0 1-.914.692ZM56.145 9.561v4.5h-.833v-4.5h-1.437V8.76h3.708v.801h-1.438ZM60.002 11.606l1.2-2.845h.966l-2.001 4.448c-.273.63-.71.97-1.278.967-.172 0-.354-.041-.544-.121l-.07-.03.02-.072.203-.714.095.053c.099.056.198.083.302.083a.525.525 0 0 0 .307-.074c.064-.045.137-.142.205-.292l.17-.373-1.77-3.875h.966l1.229 2.845ZM62.701 14.061V8.76h3.895v5.301h-.833v-4.5h-2.23v4.5h-.832ZM67.603 14.061V8.76h.833v2.2h2.402v-2.2h.833v5.301h-.833v-2.314h-2.402v2.314h-.833Z" fill="#404040"/><path fill-rule="evenodd" clip-rule="evenodd" d="M77.812 11.411c.001.769-.262 1.43-.782 1.962-.52.534-1.177.804-1.948.803-.772 0-1.429-.269-1.948-.803-.521-.533-.783-1.193-.783-1.962 0-.769.262-1.43.783-1.962.52-.535 1.176-.804 1.948-.803.767-.001 1.422.27 1.945.807.522.535.786 1.194.785 1.958Zm-4.614 0c.001.58.183 1.043.547 1.412.367.37.805.55 1.337.552.53-.001.97-.182 1.336-.552.365-.369.547-.833.548-1.412-.001-.58-.183-1.043-.548-1.412a1.804 1.804 0 0 0-1.337-.552c-.53.001-.97.182-1.336.552-.364.369-.546.833-.547 1.412ZM83.259 11.316c.205.095.38.234.52.415.173.224.263.49.262.783 0 .441-.167.82-.492 1.11-.324.29-.713.438-1.154.437h-2.047V8.76h1.947a1.6 1.6 0 0 1 1.102.42c.313.279.472.64.471 1.063 0 .258-.068.492-.205.693a1.26 1.26 0 0 1-.404.38Zm-2.08 1.944h1.245a.704.704 0 0 0 .554-.237.766.766 0 0 0 .215-.524.743.743 0 0 0-.22-.518.75.75 0 0 0-.578-.234H81.18v1.513Zm0-2.3h1.115c.231-.002.402-.073.538-.22a.702.702 0 0 0 .204-.483.7.7 0 0 0-.198-.48.653.653 0 0 0-.514-.216H81.18v1.398Z" fill="#404040"/><path d="M93.16 28.513h1.6V17.824h-1.6v10.69Zm14.416-6.838-1.835 4.634h-.055l-1.904-4.634h-1.724l2.855 6.477-1.628 3.603h1.67l4.4-10.08h-1.779Zm-9.077 5.624c-.525 0-1.255-.261-1.255-.908 0-.825.91-1.14 1.696-1.14.704 0 1.035.15 1.463.357a1.939 1.939 0 0 1-1.904 1.691Zm.193-5.858c-1.158 0-2.358.509-2.855 1.637l1.42.59c.304-.59.87-.783 1.463-.783.828 0 1.669.495 1.683 1.375v.11a3.55 3.55 0 0 0-1.67-.413c-1.53 0-3.09.84-3.09 2.407 0 1.43 1.256 2.352 2.663 2.352 1.076 0 1.669-.482 2.042-1.045h.055v.825h1.544v-4.099c0-1.897-1.42-2.956-3.255-2.956Zm-9.89 1.535h-2.277v-3.664h2.277c1.196 0 1.875.987 1.875 1.832 0 .828-.679 1.832-1.875 1.832Zm-.042-5.152h-3.834v10.69h1.6v-4.05h2.234c1.774 0 3.518-1.28 3.518-3.32s-1.744-3.32-3.518-3.32Zm-20.91 9.477c-1.106 0-2.032-.923-2.032-2.19 0-1.281.926-2.218 2.032-2.218 1.091 0 1.948.937 1.948 2.218 0 1.267-.857 2.19-1.948 2.19Zm1.837-5.028h-.055c-.36-.427-1.05-.812-1.92-.812-1.825 0-3.496 1.597-3.496 3.65 0 2.038 1.671 3.623 3.495 3.623.87 0 1.562-.386 1.92-.827h.056v.524c0 1.391-.746 2.135-1.948 2.135-.981 0-1.59-.703-1.838-1.295l-1.395.579c.4.964 1.464 2.148 3.233 2.148 1.88 0 3.468-1.102 3.468-3.788v-6.529h-1.52v.592Zm2.625 6.24h1.603v-10.69h-1.603v10.69Zm3.966-3.526c-.041-1.405 1.092-2.121 1.907-2.121.636 0 1.174.316 1.354.771l-3.26 1.35Zm4.974-1.212c-.303-.813-1.23-2.314-3.123-2.314-1.879 0-3.44 1.474-3.44 3.636 0 2.039 1.548 3.637 3.62 3.637 1.672 0 2.64-1.02 3.04-1.612l-1.243-.827c-.415.607-.981 1.006-1.797 1.006-.815 0-1.395-.372-1.769-1.102l4.878-2.011-.166-.413Zm-38.86-1.199v1.543h3.704c-.11.868-.401 1.502-.843 1.942-.539.538-1.382 1.13-2.86 1.13-2.28 0-4.063-1.832-4.063-4.105 0-2.273 1.783-4.105 4.063-4.105 1.23 0 2.127.482 2.79 1.102l1.092-1.088c-.925-.882-2.155-1.557-3.882-1.557-3.123 0-5.748 2.535-5.748 5.648 0 3.113 2.625 5.648 5.748 5.648 1.685 0 2.957-.551 3.951-1.585 1.023-1.019 1.34-2.451 1.34-3.608 0-.359-.027-.689-.082-.965h-5.21Zm9.503 4.725c-1.106 0-2.06-.909-2.06-2.204 0-1.309.954-2.204 2.06-2.204 1.105 0 2.058.895 2.058 2.204 0 1.295-.953 2.204-2.058 2.204Zm0-5.84c-2.018 0-3.662 1.529-3.662 3.636 0 2.094 1.644 3.637 3.662 3.637 2.017 0 3.661-1.543 3.661-3.637 0-2.107-1.644-3.636-3.661-3.636Zm7.987 5.84c-1.105 0-2.058-.909-2.058-2.204 0-1.309.953-2.204 2.059-2.204 1.105 0 2.058.895 2.058 2.204 0 1.295-.953 2.204-2.059 2.204Zm0-5.84c-2.017 0-3.661 1.529-3.661 3.636 0 2.094 1.644 3.637 3.662 3.637 2.017 0 3.661-1.543 3.661-3.637 0-2.107-1.644-3.636-3.661-3.636Z" fill="#404040"/><path fill-rule="evenodd" clip-rule="evenodd" d="M22.458 19.218 11.113 8a1.5 1.5 0 0 1 .704.212l13.75 7.909-3.11 3.096v.001ZM10 9.158c0-.24.062-.456.164-.636l11.54 11.43L10.1 31.431c-.066-.15-.1-.311-.099-.475V9.158Zm16.518 7.5-3.324 3.293 3.323 3.278 4.06-2.316c.577-.331.66-.754.654-.977-.006-.372-.24-.718-.638-.93-.292-.156-2.172-1.246-3.45-1.985l-.626-.363h.001ZM11.013 31.986l11.444-11.299 3.126 3.097-4.47 2.56-9.51 5.48a1.287 1.287 0 0 1-.59.162Z" fill="#595959"/></svg>