<svg width="120" height="40" fill="none" xmlns="http://www.w3.org/2000/svg"><rect width="120" height="40" rx="8" fill="#e0e0e0"/><mask id="a" style="mask-type:luminance" maskUnits="userSpaceOnUse" x="10" y="8" width="100" height="24"><path d="M110 8H10v24h100V8Z" fill="#fff"/></mask><g mask="url(#a)"><path fill-rule="evenodd" clip-rule="evenodd" d="M20.667 31.078c-5.029 0-7.543 0-9.105-1.557C10 27.964 10 25.457 10 20.444v-.886c0-5.013 0-7.519 1.562-9.076 1.562-1.558 4.076-1.558 9.105-1.558h.889c5.028 0 7.542 0 9.104 1.558 1.562 1.557 1.562 4.063 1.562 9.076v.886c0 5.013 0 7.52-1.562 9.077-1.562 1.557-4.076 1.557-9.104 1.557h-.89Z" fill="#595959"/><path d="m25.664 23.28 1.492.371c.68.17 1.339-.34 1.339-1.036V15.4c0-.612-.42-1.146-1.018-1.295l-4.307-1.073c-.68-.169-1.34.341-1.34 1.037v1.3l-2.713-.676c-.68-.17-1.34.341-1.34 1.037v1.3l-2.713-.675c-.68-.17-1.34.34-1.34 1.036v7.214c0 .613.42 1.147 1.02 1.296l4.306 1.072c.68.17 1.339-.34 1.339-1.036v-1.3l.675.167-.676-.17.001-5.901c0-.609-.385-.962-.525-1.07a.064.064 0 0 1-.015-.087.077.077 0 0 1 .084-.03c.568.17 1.11.75 1.165 1.48l.187 5.51c.006.18.123.337.292.396l1.526.38c.68.17 1.34-.34 1.34-1.036v-7.204c0-.608-.386-.961-.526-1.07a.065.065 0 0 1-.015-.086.076.076 0 0 1 .085-.03c.568.17 1.11.75 1.165 1.48l.187 5.509a.434.434 0 0 0 .325.405Z" fill="#fff"/><path fill-rule="evenodd" clip-rule="evenodd" d="M64.596 26.254c0 1.925-1.7 3.086-3.757 3.086-2.01 0-3.679-1.145-4.204-2.963l1.793-.306c.572 1.024 1.221 1.589 2.427 1.589 1.05 0 1.84-.49 1.84-1.345 0-.978-1.052-1.344-2.227-1.726-1.53-.504-3.308-1.1-3.308-3.27 0-1.925 1.577-3.055 3.556-3.055 1.916 0 3.323 1.07 3.88 2.75l-1.763.29c-.386-.856-1.082-1.36-2.055-1.36-.928 0-1.716.443-1.716 1.284 0 .962 1.035 1.329 2.226 1.726 1.53.52 3.308 1.146 3.308 3.3Zm-20.7-1.16c1.624-.414 2.69-1.651 2.69-3.27 0-2.002-1.607-3.408-3.864-3.408h-4.019v10.772h1.855V25.23h1.314l2.875 3.957h2.18l-3.03-4.095Zm-1.174-4.997c1.16 0 1.963.703 1.963 1.726 0 1.024-.803 1.727-1.963 1.727h-2.164v-3.453h2.164Zm8.379 9.243c.974 0 1.87-.504 2.38-1.344l.356 1.192h1.33v-7.945h-1.778v4.599c0 1.13-.758 1.925-1.793 1.925-1.02 0-1.732-.795-1.732-1.925v-4.6h-1.777v4.798c0 1.91 1.298 3.3 3.014 3.3Zm18.33-1.68c-.602 0-.896-.29-.896-.886V22.77h2.396v-1.528h-2.396V18.95h-1.33l-.448 2.292h-1.314v1.528h1.314v4.003c0 1.558.912 2.414 2.675 2.414h1.499l.155-1.528h-1.654Zm11.031-2.445c0 2.414-1.777 4.125-4.297 4.125-2.52 0-4.297-1.71-4.297-4.125 0-2.414 1.777-4.125 4.297-4.125 2.52 0 4.297 1.711 4.297 4.125Zm-6.74 0c0 1.497.99 2.521 2.443 2.521s2.442-1.024 2.442-2.52c0-1.498-.99-2.522-2.442-2.522-1.453 0-2.442 1.024-2.442 2.521Zm10.064 3.973v-4.69c0-1.01.494-1.575 1.576-1.575h1.02l-.154-1.68h-.34c-.943 0-1.67.26-2.21 1.146l-.34-1.146h-1.33v7.945h1.778Zm7.17-8.098c2.442 0 4.174 1.742 4.174 4.034 0 .213-.016.397-.031.565h-6.461c.17 1.222 1.066 2.047 2.426 2.047.943 0 1.685-.397 2.071-.962l1.67.275c-.603 1.512-2.18 2.291-3.849 2.291-2.442 0-4.173-1.726-4.173-4.125 0-2.398 1.73-4.125 4.173-4.125Zm2.242 3.224c-.294-.993-1.129-1.696-2.242-1.696-1.082 0-1.916.672-2.21 1.696h4.452Z" fill="#404040"/><path d="M37.832 15.86v-2.143h.142c.183 0 .33-.044.44-.133.11-.089.202-.267.276-.534.079-.272.139-.672.18-1.2l.23-2.919h3.494v4.786h.81v2.142h-.81v-1.396h-3.951v1.396h-.811Zm3.951-2.143v-4.04h-1.936l-.165 2.212c-.063.884-.226 1.494-.488 1.828h2.589ZM45.903 14.542c-.415 0-.785-.089-1.11-.267a1.934 1.934 0 0 1-.764-.745 2.146 2.146 0 0 1-.275-1.09c0-.409.092-.772.275-1.091.184-.32.438-.568.764-.746a2.223 2.223 0 0 1 1.11-.274c.414 0 .784.091 1.11.274.325.178.579.427.763.746.183.319.275.682.275 1.09 0 .408-.092.772-.275 1.09-.184.32-.439.568-.764.746a2.276 2.276 0 0 1-1.11.267Zm0-.706c.398 0 .72-.128.968-.385.251-.256.377-.593.377-1.012 0-.418-.126-.756-.377-1.012-.247-.261-.57-.392-.968-.392-.4 0-.722.13-.968.392-.247.256-.37.594-.37 1.012 0 .413.123.75.37 1.012.246.257.569.385.968.385ZM50.676 14.542c-.404 0-.769-.089-1.094-.267a1.949 1.949 0 0 1-.748-.753 2.18 2.18 0 0 1-.268-1.083c0-.408.09-.771.268-1.09.178-.32.428-.568.748-.746.32-.183.684-.274 1.094-.274.435 0 .823.104 1.164.313.347.21.593.51.74.903l-.724.117a1.07 1.07 0 0 0-.448-.455 1.345 1.345 0 0 0-.685-.172c-.399 0-.724.13-.976.392-.247.262-.37.599-.37 1.012 0 .413.123.75.37 1.012.252.257.577.385.976.385.267 0 .504-.06.708-.18.21-.121.362-.28.457-.48l.724.118a1.783 1.783 0 0 1-.756.926 2.223 2.223 0 0 1-1.18.322ZM54.913 14.463h-.772v-3.35h-1.409v-.706h3.59v.706h-1.41v3.35ZM59.886 10.407h.795l-1.7 4.668c-.126.35-.291.604-.496.761-.205.157-.478.236-.819.236h-.606l-.07-.706h.724a.55.55 0 0 0 .354-.102c.084-.063.155-.176.212-.338l.087-.235-1.81-4.284h.826l1.29 3.13h.111l1.102-3.13ZM62.074 14.463h-.771v-4.056h3.463v4.056h-.772v-3.35h-1.92v3.35ZM68.477 12.062v-1.655h.771v4.056h-.77V12.77h-1.96v1.694h-.772v-4.056h.771v1.655h1.96ZM72.147 14.542c-.415 0-.785-.089-1.11-.267a1.935 1.935 0 0 1-.764-.745 2.146 2.146 0 0 1-.275-1.09c0-.409.092-.772.275-1.091.184-.32.439-.568.764-.746a2.223 2.223 0 0 1 1.11-.274c.414 0 .784.091 1.11.274.325.178.58.427.763.746.183.319.275.682.275 1.09 0 .408-.092.772-.275 1.09-.184.32-.438.568-.764.746a2.276 2.276 0 0 1-1.11.267Zm0-.706c.398 0 .721-.128.968-.385.252-.256.378-.593.378-1.012 0-.418-.126-.756-.378-1.012-.247-.261-.57-.392-.968-.392-.4 0-.722.13-.968.392-.247.256-.37.594-.37 1.012 0 .413.123.75.37 1.012.246.257.569.385.968.385ZM79.555 12.337c.21.078.378.207.504.384a.983.983 0 0 1 .197.612.961.961 0 0 1-.19.581c-.12.173-.29.309-.511.408-.22.094-.472.141-.756.141h-1.944v-4.056h1.874c.267 0 .506.047.716.141.21.094.372.222.488.384.12.163.18.348.18.558 0 .198-.05.371-.149.517a.925.925 0 0 1-.409.33Zm-1.928-1.279v.997h1.102a.702.702 0 0 0 .44-.134.445.445 0 0 0 .174-.36.445.445 0 0 0-.174-.362.675.675 0 0 0-.44-.141h-1.102Zm1.172 2.754a.75.75 0 0 0 .496-.157.505.505 0 0 0 .19-.408.505.505 0 0 0-.19-.408.75.75 0 0 0-.496-.157h-1.172v1.13h1.172Z" fill="#404040"/></g></svg>