<svg width="120" height="40" fill="none" xmlns="http://www.w3.org/2000/svg"><rect width="120" height="40" rx="8" fill="#e0e0e0"/><path d="M81.512 18.288v8.806c0 1.278.595 1.916 1.785 1.985.206 0 .434-.023.663-.069.229-.045.435-.09.595-.16l-.206-1.231a2.207 2.207 0 0 1-.457.068c-.252 0-.412-.068-.527-.205-.114-.137-.16-.365-.16-.684V18.15l-1.693.137ZM64.554 26.638c.39.776.961 1.346 1.693 1.757.755.41 1.625.616 2.678.616.618 0 1.236-.069 1.876-.205a8.034 8.034 0 0 0 1.808-.616v-4.22h-3.982v1.322h2.312v2.03a5.635 5.635 0 0 1-.939.252 5.014 5.014 0 0 1-1.007.091c-.732 0-1.35-.16-1.83-.48a2.993 2.993 0 0 1-1.053-1.322c-.229-.548-.343-1.186-.343-1.894 0-.798.137-1.505.435-2.076a2.912 2.912 0 0 1 1.212-1.3 3.691 3.691 0 0 1 1.831-.456c.824 0 1.694.205 2.609.639l.435-1.324a7.411 7.411 0 0 0-1.465-.524 7.754 7.754 0 0 0-1.647-.183c-.985 0-1.877.205-2.655.593-.801.388-1.419.981-1.876 1.757-.458.776-.687 1.734-.687 2.852 0 1.026.206 1.939.595 2.691Z" fill="#404040"/><path fill-rule="evenodd" clip-rule="evenodd" d="M40.94 26.208h4.027l1.007 2.669h1.853L43.8 18.862h-1.67l-3.937 10.015h1.762l.984-2.67Zm3.5-1.369h-2.997l1.075-2.897.412-1.3c.138.479.298.935.435 1.323l1.076 2.874ZM48.495 21.556c.021.608.041 1.175.041 1.684h-.023v8.737l1.716-.137v-3.125c.504.16 1.007.25 1.51.25.71 0 1.328-.159 1.854-.478.55-.297.961-.776 1.259-1.392.297-.616.458-1.369.458-2.236 0-.82-.138-1.505-.39-2.053-.251-.547-.595-.935-1.03-1.186a2.717 2.717 0 0 0-1.395-.365c-.87 0-1.625.365-2.288 1.095a6.506 6.506 0 0 0-.115-.935H48.49l.005.141Zm5.075 3.44c0 .913-.183 1.597-.526 2.053-.366.48-.87.708-1.51.708-.206 0-.435-.023-.664-.069a2.022 2.022 0 0 1-.595-.205V23.49c.252-.274.526-.48.801-.64a1.76 1.76 0 0 1 .915-.227c.481 0 .847.205 1.145.57.297.365.434.958.434 1.802ZM56.339 23.24c0-.509-.02-1.076-.041-1.684l-.005-.141h1.602c.068.319.091.616.114.935.664-.73 1.42-1.095 2.289-1.095.503 0 .96.114 1.395.365.435.25.779.639 1.03 1.186.252.548.39 1.232.39 2.053 0 .867-.16 1.62-.458 2.236-.298.616-.71 1.095-1.259 1.392-.526.319-1.144.479-1.854.479a4.989 4.989 0 0 1-1.51-.251v3.125l-1.716.137V23.24h.023Zm4.508 3.81c.343-.457.526-1.141.526-2.054 0-.844-.137-1.437-.435-1.802-.297-.365-.663-.57-1.144-.57-.343 0-.64.068-.915.228s-.55.365-.801.639v3.992c.16.091.366.16.595.205.229.046.458.069.663.069.641 0 1.168-.229 1.51-.708ZM78.627 28.875c-.069-.296-.091-.616-.114-.98-.275.319-.595.57-1.03.798-.412.228-.893.32-1.442.32-.435 0-.824-.092-1.167-.252-.343-.16-.64-.41-.847-.753a2.35 2.35 0 0 1-.32-1.232c0-.73.252-1.3.778-1.733.526-.434 1.396-.64 2.609-.64.458 0 .915.024 1.35.092v-.137c0-.661-.137-1.118-.412-1.391-.275-.274-.686-.411-1.213-.411-.366 0-.755.046-1.167.16-.412.114-.778.228-1.098.387l-.275-1.231c.298-.137.71-.274 1.213-.388a7.128 7.128 0 0 1 1.579-.183c.64 0 1.19.092 1.648.297.457.205.8.525 1.052 1.004s.39 1.117.39 1.916v2.966c0 .233.011.54.027.93l.018.461h-1.579Zm-1.007-1.391c.366-.16.64-.388.87-.64v-1.39a12.048 12.048 0 0 0-1.144-.07c-.71 0-1.19.115-1.465.343-.275.228-.412.525-.412.913 0 .365.092.638.298.82.206.183.457.275.8.275.344.022.687-.069 1.053-.251Z" fill="#404040"/><path d="M85.768 27.094v-8.806l1.693-.137v8.646c0 .32.046.548.16.685.115.137.275.205.526.205.115 0 .252-.023.458-.068l.206 1.232c-.16.068-.366.114-.595.16a3.453 3.453 0 0 1-.663.068c-1.19-.069-1.785-.707-1.785-1.985Z" fill="#404040"/><path fill-rule="evenodd" clip-rule="evenodd" d="M90.92 25.361h4.875v-.456c0-.662-.114-1.277-.343-1.825-.23-.547-.572-1.004-1.053-1.323-.457-.342-1.052-.502-1.762-.502-.686 0-1.281.16-1.808.479-.526.32-.915.776-1.212 1.369-.298.593-.435 1.3-.435 2.121 0 .799.137 1.46.412 2.03a2.84 2.84 0 0 0 1.235 1.301c.55.297 1.213.456 2.014.456 1.03 0 1.968-.205 2.815-.616l-.366-1.163c-.344.137-.687.25-1.053.342a4.484 4.484 0 0 1-1.076.137c-1.418 0-2.173-.798-2.242-2.35Zm3.227-1.095c-.027-.582-.186-1.03-.457-1.323-.275-.297-.618-.456-1.076-.456-.435 0-.8.16-1.075.456-.298.297-.48.753-.573 1.323h3.18Z" fill="#404040"/><path d="M97.093 23.286c0-.294-.012-.692-.027-1.204l-.02-.667h1.603c.023.206.046.457.068.753l.016.19c.016.207.03.376.03.517.206-.319.39-.593.595-.82.183-.229.412-.412.664-.548a1.81 1.81 0 0 1 .869-.206c.275 0 .481.023.687.092l-.206 1.482a2.007 2.007 0 0 0-.549-.068c-.412 0-.755.091-1.053.297-.297.205-.618.547-.961 1.003v4.791h-1.693v-5.612h-.023ZM101.924 31.771c.16.069.366.114.618.16.251.046.526.069.801.069.594 0 1.075-.114 1.487-.32a3.277 3.277 0 0 0 1.053-.98c.297-.434.594-1.027.846-1.735l2.746-7.55h-1.716l-1.396 4.243a21.33 21.33 0 0 0-.457 1.62 14.182 14.182 0 0 0-.435-1.643l-1.397-4.198h-1.83l2.746 7.506-.115.273c-.365.981-.938 1.46-1.692 1.46-.143 0-.284-.017-.443-.038a2.517 2.517 0 0 1-.373-.07 2.597 2.597 0 0 0-.123-.028l-.32 1.231ZM66.524 14.501v-2.829c0-.328.018-.693.038-1.095l.007-.137-2.608 4.061h-.984V9.345h.823v2.943c0 .32 0 .662-.022 1.05l2.563-3.993h1.03v5.156h-.847ZM64.51 8.89a1.03 1.03 0 0 1-.434-.388A1.33 1.33 0 0 1 63.893 8h.64c.07.388.298.57.664.57.366 0 .595-.182.687-.57h.64a1.33 1.33 0 0 1-.183.502c-.091.16-.251.274-.434.388-.183.114-.435.16-.71.16-.252 0-.503-.069-.686-.16Z" fill="#404040"/><path fill-rule="evenodd" clip-rule="evenodd" d="M39.015 14.251c-.39-.205-.664-.524-.87-.912-.206-.388-.297-.844-.297-1.369 0-.547.114-1.027.32-1.437.206-.41.526-.73.915-.935.412-.229.87-.343 1.42-.343.526 0 .96.114 1.35.32.365.205.663.525.869.912.206.388.297.844.297 1.346 0 .548-.114 1.027-.32 1.438-.206.41-.526.73-.915.935-.39.228-.87.342-1.396.342a2.653 2.653 0 0 1-1.373-.297Zm2.334-.638c.252-.16.435-.388.572-.685.114-.296.183-.639.183-1.004 0-.364-.046-.707-.16-.98-.115-.297-.275-.525-.527-.685-.251-.182-.549-.25-.938-.25a1.66 1.66 0 0 0-.915.25c-.252.183-.435.41-.572.707-.137.297-.183.616-.183.981s.069.708.183 1.004c.114.297.297.525.55.707.25.183.548.251.914.251.32-.045.641-.114.893-.296Z" fill="#404040"/><path d="M44.83 10.076h-1.602l.07-.753h4.05l-.092.753h-1.533v4.426h-.893v-4.426ZM51.143 14.502h1.007l-1.922-2.874.938-1.346a.832.832 0 0 1 .229-.251.49.49 0 0 1 .274-.068c.092 0 .184.022.275.068l.183-.684c-.137-.069-.32-.092-.526-.092-.229 0-.435.046-.595.16-.16.114-.32.274-.48.502l-1.076 1.551h-.458V9.347H48.1v5.155h.892v-2.28h.618l1.533 2.28Z" fill="#404040"/><path fill-rule="evenodd" clip-rule="evenodd" d="M52.838 9.345h1.396c.663 0 1.167.137 1.51.41.343.275.526.662.526 1.164 0 .342-.068.64-.228.89-.16.251-.367.456-.664.593a2.13 2.13 0 0 1-.961.206c-.206 0-.435-.023-.687-.069v1.962h-.892V9.345Zm2.242 2.304c.184-.182.275-.41.275-.73s-.091-.547-.297-.684c-.183-.137-.48-.205-.847-.205h-.48v1.825c.228.045.388.045.503.045.366 0 .663-.091.846-.25ZM57.118 13.339c.206.388.48.707.87.912.366.206.823.32 1.372.297.527 0 1.007-.114 1.396-.342.39-.205.71-.525.916-.935.206-.411.32-.89.32-1.438 0-.502-.091-.958-.297-1.346a2.234 2.234 0 0 0-.87-.912 2.81 2.81 0 0 0-1.35-.32c-.55 0-1.007.114-1.419.343-.389.205-.71.524-.915.935-.206.41-.32.89-.32 1.437 0 .525.09.981.297 1.369Zm3.753-.41c-.138.296-.32.524-.572.684-.252.182-.55.25-.893.296-.366 0-.663-.068-.915-.25a1.532 1.532 0 0 1-.55-.708 2.8 2.8 0 0 1-.182-1.004c0-.365.045-.684.183-.98.137-.297.32-.525.572-.708.251-.16.549-.25.915-.25.39 0 .687.068.938.25.252.16.412.388.527.684.114.274.16.617.16.982a2.8 2.8 0 0 1-.183 1.003Z" fill="#404040"/><path d="M68.123 10.076h1.579v4.426h.892v-4.426h1.534l.091-.753h-4.027l-.069.753ZM72.973 9.345h3.043l-.091.73h-2.06v1.415h1.945v.684h-1.945v1.574h2.174l-.069.73h-2.997V9.345Z" fill="#404040"/><path fill-rule="evenodd" clip-rule="evenodd" d="M82.723 12.402a1.196 1.196 0 0 0-.435-.456 1.417 1.417 0 0 0-.618-.205 1.54 1.54 0 0 0 .687-.434 1.26 1.26 0 0 0 .251-.776c0-.365-.137-.661-.412-.866-.274-.206-.686-.32-1.235-.32h-1.625v5.133h1.693c.39 0 .733-.068 1.007-.182.275-.114.504-.274.641-.502.137-.206.206-.457.206-.753 0-.228-.046-.456-.16-.639Zm-1.945-.958h-.572v-1.46h.594c.298 0 .504.046.664.16.16.114.229.273.229.479a.786.786 0 0 1-.435.707 1.067 1.067 0 0 1-.48.114Zm1.212 1.528c0 .274-.091.48-.274.64-.183.159-.458.227-.824.205h-.664v-1.734h.595c.39 0 .664.068.87.228.206.16.297.365.297.662Z" fill="#404040"/><path fill-rule="evenodd" clip-rule="evenodd" d="M25.607 9.37H16.11c-4.485 0-6.11 1.643-6.11 6.091v9.468c0 4.471 1.648 6.09 6.11 6.09h9.497c4.485 0 6.11-1.642 6.11-6.09V15.46c.022-4.448-1.625-6.09-6.11-6.09Z" fill="#595959"/><path d="M14.302 20.206h.572v2.83h-.572v-1.142h-1.304v1.141h-.572v-2.829h.572v1.141h1.304v-1.14Zm3.25 1.62c0 .456-.23.707-.641.707-.412 0-.64-.25-.64-.73v-1.597h-.573v1.62c0 .799.435 1.255 1.213 1.255s1.236-.456 1.236-1.278v-1.597h-.572v1.62h-.023Zm6.659.32-.641-1.94h-.48l-.641 1.94-.618-1.94h-.618l.984 2.83h.48l.641-1.872.641 1.871h.48l.985-2.829h-.595l-.618 1.94Zm2.265-.32h1.053v-.525h-1.053v-.57h1.534v-.525h-2.083v2.83h2.151v-.526H26.5v-.684h-.023Zm2.266 1.21h.572v-2.83h-.572v2.83Zm-9.474-.594-.252.593h-.595l1.236-2.829h.503l1.236 2.83h-.595l-.252-.594h-1.281Zm.206-.502h.87l-.435-1.004-.435 1.004ZM20.872 16.603a3.618 3.618 0 0 1-3.616-3.605h.503a3.11 3.11 0 0 0 3.113 3.103 3.11 3.11 0 0 0 3.112-3.103h.503a3.618 3.618 0 0 1-3.615 3.605Z" fill="#fff"/></svg>